<svg width="1920" height="1080" viewBox="0 0 1920 1080" fill="none" xmlns="http://www.w3.org/2000/svg">
<rect width="1920" height="1080" fill="#FBF8F8" fill-opacity="0.63"/>
<rect x="0.5" y="0.5" width="1919" height="1079" stroke="white" stroke-opacity="0.6"/>
<rect y="11" width="1900" height="1060" rx="20" fill="#F2F8FD"/>
<path d="M9 31C9 19.9543 17.9543 11 29 11H292V1071H29C17.9543 1071 9 1062.05 9 1051V31Z" fill="white"/>
<rect x="316" y="120" width="230" height="150" rx="20" fill="white"/>
<rect x="583" y="120" width="230" height="150" rx="20" fill="white"/>
<rect x="851" y="120" width="230" height="150" rx="20" fill="white"/>
<rect x="1118" y="120" width="230" height="150" rx="20" fill="white"/>
<rect x="1386" y="120" width="230" height="150" rx="20" fill="white"/>
<rect x="1653" y="120" width="230" height="150" rx="20" fill="white"/>
<rect x="316" y="307" width="497" height="355" rx="20" fill="white"/>
<rect x="850" y="307" width="497" height="355" rx="20" fill="white"/>
<rect x="1384" y="307" width="497" height="355" rx="20" fill="white"/>
<rect x="316" y="699" width="1567" height="353" rx="20" fill="white"/>
<rect x="23" y="177" width="254" height="64" rx="20" fill="#0E45B7"/>
</svg>
